<svg width="23" height="194" viewBox="0 0 23 194" fill="none" xmlns="http://www.w3.org/2000/svg">
<path d="M11.318 164.04L10.994 163.428C11.546 163.188 11.822 162.762 11.822 162.15C11.822 161.766 11.702 161.46 11.462 161.232C11.222 161.016 10.952 160.908 10.652 160.908C10.424 160.908 10.226 160.974 10.058 161.106C9.902 161.238 9.782 161.376 9.698 161.52C9.626 161.664 9.53 161.892 9.41 162.204C9.398 162.252 9.35 162.366 9.266 162.546C9.194 162.738 9.146 162.864 9.122 162.924C9.098 162.984 9.05 163.086 8.978 163.23C8.918 163.386 8.858 163.5 8.798 163.572C8.75 163.644 8.684 163.728 8.6 163.824C8.516 163.932 8.426 164.022 8.33 164.094C8.018 164.346 7.622 164.472 7.142 164.472C6.362 164.472 5.774 164.232 5.378 163.752C4.994 163.284 4.802 162.726 4.802 162.078C4.802 161.454 4.976 160.914 5.324 160.458C5.672 160.002 6.146 159.696 6.746 159.54L6.962 160.242C6.494 160.362 6.128 160.59 5.864 160.926C5.612 161.274 5.486 161.658 5.486 162.078C5.486 162.546 5.636 162.936 5.936 163.248C6.248 163.56 6.638 163.716 7.106 163.716C7.49 163.716 7.784 163.596 7.988 163.356C8.204 163.116 8.438 162.69 8.69 162.078C9.038 161.238 9.362 160.704 9.662 160.476C9.95 160.26 10.268 160.152 10.616 160.152C11.168 160.152 11.618 160.338 11.966 160.71C12.326 161.082 12.506 161.55 12.506 162.114C12.506 163.062 12.11 163.704 11.318 164.04ZM11.57 172.194H10.616C11.42 171.498 11.822 170.652 11.822 169.656C11.822 168.768 11.516 168.036 10.904 167.46C10.304 166.884 9.548 166.596 8.636 166.596C7.652 166.596 6.878 166.902 6.314 167.514C5.762 168.126 5.486 168.828 5.486 169.62C5.486 170.592 5.924 171.48 6.8 172.284H5.828C5.144 171.516 4.802 170.622 4.802 169.602C4.802 168.498 5.162 167.592 5.882 166.884C6.614 166.188 7.526 165.84 8.618 165.84C9.734 165.84 10.658 166.188 11.39 166.884C12.134 167.58 12.506 168.504 12.506 169.656C12.506 170.604 12.194 171.45 11.57 172.194ZM5 174.271H12.344V174.991H11.39C12.134 175.315 12.506 175.855 12.506 176.611C12.506 176.899 12.446 177.157 12.326 177.385L11.678 177.025C11.774 176.893 11.822 176.713 11.822 176.485C11.822 176.137 11.72 175.849 11.516 175.621C11.324 175.405 11.048 175.255 10.688 175.171C10.34 175.099 10.046 175.051 9.806 175.027C9.566 175.003 9.278 174.991 8.942 174.991H5V174.271ZM11.39 179.19C12.134 179.934 12.506 180.852 12.506 181.944C12.506 183.036 12.134 183.948 11.39 184.68C10.658 185.424 9.746 185.796 8.654 185.796C7.562 185.796 6.644 185.424 5.9 184.68C5.168 183.948 4.802 183.036 4.802 181.944C4.802 180.852 5.168 179.934 5.9 179.19C6.644 178.458 7.562 178.092 8.654 178.092C9.746 178.092 10.658 178.458 11.39 179.19ZM6.404 179.73C5.792 180.33 5.486 181.068 5.486 181.944C5.486 182.82 5.792 183.552 6.404 184.14C7.016 184.74 7.766 185.04 8.654 185.04C9.542 185.04 10.292 184.74 10.904 184.14C11.516 183.552 11.822 182.82 11.822 181.944C11.822 181.068 11.516 180.33 10.904 179.73C10.292 179.142 9.542 178.848 8.654 178.848C7.766 178.848 7.016 179.142 6.404 179.73ZM18.122 187.911V188.631H5V187.911H18.122ZM18.122 191.216V191.936H5V191.216H18.122Z" fill="white"/>
<line x1="8.5" y1="145" x2="8.5" y2="91" stroke="white"/>
<circle cx="9" cy="50" r="4" transform="rotate(180 9 50)" fill="white"/>
<circle cx="9" cy="27" r="4" transform="rotate(180 9 27)" fill="white"/>
<circle cx="9" cy="4" r="4" transform="rotate(180 9 4)" fill="#037E8C"/>
</svg>
